Hanif_Shallow_2_5_grf.mot
version=1
nRows=37
nColumns=19
inDegrees=yes
endheader
time	right_ground_force_vx	right_ground_force_vy	right_ground_force_vz	right_ground_force_px	right_ground_force_py	right_ground_force_pz	right_ground_torque_x	right_ground_torque_y	right_ground_torque_z	left_ground_force_vx	left_ground_force_vy	left_ground_force_vz	left_ground_force_px	left_ground_force_py	left_ground_force_pz	left_ground_torque_x	left_ground_torque_y	left_ground_torque_z
2.950000	0.759097	304.193000	36.702900	0.205882	0.000000	-1.442560	-19.290500	2.843420	2.152710	-2.909600	304.411000	-37.278500	0.218220	0.000000	-0.964243	18.686200	-3.657400	6.099220
2.955000	0.805768	302.794000	36.288200	0.205859	0.000000	-1.443530	-18.908200	2.870900	2.137660	-3.040150	303.927000	-36.806000	0.218413	0.000000	-0.963614	18.467000	-3.598040	6.136400
2.960000	0.144233	300.982000	35.588000	0.205972	0.000000	-1.442400	-19.141900	2.613330	2.130470	-3.048160	304.880000	-36.769900	0.217880	0.000000	-0.963094	18.366300	-3.630270	5.990560
2.965000	0.176295	300.707000	35.396000	0.205941	0.000000	-1.444140	-18.601400	2.706430	2.128600	-2.960380	303.621000	-36.866400	0.218091	0.000000	-0.963597	18.441500	-3.555350	6.027310
2.970000	-0.174325	299.220000	35.090100	0.206065	0.000000	-1.443250	-18.777500	2.661450	2.153130	-2.997720	305.022000	-37.014100	0.218516	0.000000	-0.963449	18.481700	-3.551380	6.183870
2.975000	-0.517255	296.302000	33.972200	0.206818	0.000000	-1.442960	-18.683700	2.596450	2.348280	-2.751680	303.884000	-36.697300	0.218575	0.000000	-0.964207	18.640000	-3.596350	6.181490
2.980000	-0.885121	296.299000	33.419200	0.206520	0.000000	-1.442170	-18.922700	2.550390	2.250540	-2.601620	306.899000	-37.256900	0.218108	0.000000	-0.963176	18.505400	-3.595260	6.094800
2.985000	-1.578640	295.337000	33.250900	0.207356	0.000000	-1.442090	-18.888800	2.481150	2.490730	-2.750210	304.601000	-37.207500	0.219007	0.000000	-0.964679	18.827600	-3.553100	6.330700
2.990000	-1.894200	294.693000	32.592900	0.207317	0.000000	-1.442140	-18.836900	2.458480	2.468020	-2.642250	306.965000	-38.176100	0.219589	0.000000	-0.965126	19.108800	-3.522140	6.564570
2.995000	-1.407590	296.873000	32.676300	0.207219	0.000000	-1.442570	-18.844900	2.486890	2.452650	-2.857090	308.981000	-38.214500	0.220020	0.000000	-0.964870	19.157200	-3.447140	6.728730
3.000000	-1.582180	298.367000	32.850600	0.207836	0.000000	-1.442070	-19.090800	2.474890	2.650010	-3.309200	309.788000	-38.707700	0.219574	0.000000	-0.964177	19.000000	-3.533080	6.625220
3.005000	-0.838708	300.124000	32.387900	0.207843	0.000000	-1.441980	-19.222200	2.538880	2.660910	-3.055490	313.411000	-38.848500	0.220403	0.000000	-0.965107	19.508600	-3.490480	6.948890
3.010000	-1.167800	301.183000	32.321200	0.208345	0.000000	-1.441540	-19.424300	2.608490	2.830240	-3.644410	313.432000	-38.997900	0.220194	0.000000	-0.964907	19.457200	-3.606420	6.904190
3.015000	-0.270577	300.771000	32.873700	0.208743	0.000000	-1.441230	-19.483800	2.598360	2.946870	-3.624680	315.959000	-39.039900	0.220827	0.000000	-0.964716	19.552000	-3.514300	7.142850
3.020000	-0.717353	302.113000	33.402500	0.209536	0.000000	-1.441270	-19.563200	2.694640	3.219270	-3.844100	317.060000	-39.146800	0.221603	0.000000	-0.964860	19.669300	-3.516510	7.417290
3.025000	-1.185720	302.918000	33.130200	0.209594	0.000000	-1.441190	-19.642500	2.598530	3.233680	-3.840380	317.734000	-39.170100	0.221919	0.000000	-0.965175	19.811800	-3.601830	7.543650
3.030000	-1.125390	305.605000	33.054600	0.209849	0.000000	-1.441440	-19.742300	2.642360	3.338760	-3.548740	321.775000	-39.960600	0.221869	0.000000	-0.964888	19.965100	-3.550200	7.613710
3.035000	-1.848030	305.791000	33.384500	0.210916	0.000000	-1.439540	-20.341900	2.578090	3.672740	-3.799710	323.490000	-39.707300	0.221370	0.000000	-0.965607	20.308100	-3.640530	7.493160
3.040000	-1.514740	308.265000	34.049300	0.210565	0.000000	-1.439650	-20.468800	2.530580	3.587180	-3.816030	323.952000	-40.482800	0.222192	0.000000	-0.965528	20.312500	-3.667470	7.789460
3.045000	-1.873690	311.830000	34.761200	0.211722	0.000000	-1.439900	-20.631800	2.614810	4.005880	-3.839370	325.348000	-41.155300	0.222629	0.000000	-0.966348	20.667100	-3.654610	7.973270
3.050000	-1.694190	315.147000	35.515800	0.212068	0.000000	-1.438980	-21.137700	2.604750	4.157700	-3.679420	327.859000	-41.941400	0.223203	0.000000	-0.966037	20.722000	-3.679940	8.232340
3.055000	-1.299630	318.124000	35.949900	0.213370	0.000000	-1.439150	-21.281400	2.719670	4.624890	-3.125900	331.194000	-42.827800	0.222508	0.000000	-0.965709	20.814800	-3.704580	8.083610
3.060000	-0.358988	324.550000	37.042000	0.213328	0.000000	-1.439290	-21.655300	2.734050	4.696820	-3.283750	334.892000	-44.080100	0.222701	0.000000	-0.965743	21.060400	-3.732270	8.252640
3.065000	-0.209071	329.142000	39.042100	0.213665	0.000000	-1.438490	-22.221200	2.806840	4.895520	-2.829670	338.839000	-45.305900	0.223207	0.000000	-0.966393	21.521100	-3.698500	8.522390
3.070000	-0.143515	333.592000	39.561500	0.214907	0.000000	-1.438750	-22.434300	2.776240	5.373090	-3.223460	343.544000	-46.296400	0.224084	0.000000	-0.965561	21.540200	-3.760620	8.958280
3.075000	0.006029	339.577000	40.943000	0.214693	0.000000	-1.439250	-22.666400	2.891930	5.410570	-3.395620	348.518000	-47.975400	0.224430	0.000000	-0.966558	22.200900	-3.719430	9.217330
3.080000	0.344681	344.904000	42.481000	0.215644	0.000000	-1.438670	-23.218700	2.964900	5.840010	-3.304180	354.061000	-49.062200	0.224942	0.000000	-0.966746	22.617900	-3.687540	9.540800
3.085000	0.398224	352.592000	43.837300	0.216953	0.000000	-1.438580	-23.768100	2.961630	6.434610	-3.713580	360.537000	-50.414600	0.225466	0.000000	-0.967045	23.144700	-3.743950	9.917830
3.090000	0.421710	357.473000	45.084600	0.217005	0.000000	-1.438230	-24.223000	3.145720	6.568810	-3.681190	367.390000	-51.498600	0.225922	0.000000	-0.967170	23.628300	-3.716870	10.264800
3.095000	0.769996	364.247000	46.321200	0.217156	0.000000	-1.437560	-24.920800	3.162210	6.745570	-3.530380	372.330000	-51.706100	0.225664	0.000000	-0.967107	23.918300	-3.651580	10.278200
3.100000	0.990636	370.184000	47.626900	0.217927	0.000000	-1.438100	-25.125200	3.259060	7.156670	-4.014520	377.868000	-53.289500	0.226767	0.000000	-0.967610	24.471900	-3.766320	10.883400
3.105000	1.472450	375.816000	48.439400	0.217689	0.000000	-1.437700	-25.652300	3.395850	7.183050	-4.190490	381.997000	-53.883600	0.227332	0.000000	-0.967598	24.737000	-3.802620	11.222900
3.110000	2.350350	378.715000	49.640600	0.218735	0.000000	-1.437150	-26.049100	3.424080	7.644690	-4.306750	386.530000	-55.604500	0.228026	0.000000	-0.967847	25.128000	-3.806870	11.645100
3.115000	3.071140	383.102000	50.873900	0.219202	0.000000	-1.437210	-26.318200	3.477290	7.919910	-4.842280	388.563000	-57.356600	0.228850	0.000000	-0.968392	25.480200	-3.749490	12.054400
3.120000	2.969860	387.224000	52.247600	0.219581	0.000000	-1.437830	-26.362500	3.537200	8.170230	-4.748130	391.501000	-58.278800	0.228985	0.000000	-0.968111	25.560600	-3.725720	12.199800
3.125000	3.524030	389.380000	53.702100	0.219339	0.000000	-1.437420	-26.666700	3.508490	8.124040	-5.872520	393.799000	-60.248200	0.229595	0.000000	-0.968792	25.995800	-3.667580	12.547400
3.130000	3.956640	390.360000	54.177700	0.220514	0.000000	-1.437100	-26.853400	3.507190	8.611010	-6.188420	394.781000	-61.225600	0.230172	0.000000	-0.968029	25.764100	-3.610310	12.820100
